# xmcd CD database file
#
# Track frame offsets:
#	150
#	19802
#	36891
#	52526
#	68011
#	85260
#	98467
#	118229
#	132999
#	148928
#	168599
#	184418
#	201096
#	214763
#	226188
#	244122
#	264682
#	283446
#
# Disc length: 3912 seconds
#
# Revision: 1
# Processed by: cddbd v1.5.2PL0 Copyright (c) Steve Scherf et al.
# Submitted via: CDex 1.75
#
DISCID=0b0f4612
DTITLE=Celtic Woman - Celtic Woman
DYEAR=1900
DGENRE=Blues
TTITLE0=Last Rose of Summer (Intro)/Walking in the Air
TTITLE1=May It Be
TTITLE2=Isle of Inisfree
TTITLE3=Danny Boy
TTITLE4=One World
TTITLE5=Ave Maria
TTITLE6=Send Me A Song
TTITLE7=Siuil A Run (Walk My Love)
TTITLE8=Orinoco Flow
TTITLE9=Someday
TTITLE10=She Moved Thru' the Fair
TTITLE11=Nella Fantasia
TTITLE12=The Butterfly
TTITLE13=Harry's Game
TTITLE14=The Soft Goodbye
TTITLE15=You Raise Me Up
TTITLE16=The Ashoken Farewell - The  Contradiction
TTITLE17=Si Do Mhaimeo i (The Wealthy Widow)
EXTD=
EXTT0=
EXTT1=
EXTT2=
EXTT3=
EXTT4=
EXTT5=
EXTT6=
EXTT7=
EXTT8=
EXTT9=
EXTT10=
EXTT11=
EXTT12=
EXTT13=
EXTT14=
EXTT15=
EXTT16=
EXTT17=
PLAYORDER=
